<mxfile host="app.diagrams.net" modified="2024-04-17T23:20:03.911Z" agent="Mozilla/5.0 (Windows NT 10.0; Win64; x64) AppleWebKit/537.36 (KHTML, like Gecko) Chrome/123.0.0.0 Safari/537.36" etag="H9N5cJUJHDcnEgSM4eNn" version="24.2.3" type="device">
  <diagram name="Página-1" id="p0vOBo2fOdXWczJPvAmG">
    <mxGraphModel dx="2474" dy="877" grid="1" gridSize="10" guides="1" tooltips="1" connect="1" arrows="1" fold="1" page="1" pageScale="1" pageWidth="827" pageHeight="1169" math="0" shadow="0">
      <root>
        <mxCell id="0" />
        <mxCell id="1" parent="0" />
        <mxCell id="_xqzCAe58smzrty0IkYW-1" value="Cliente" style="shape=umlActor;verticalLabelPosition=bottom;verticalAlign=top;html=1;outlineConnect=0;" parent="1" vertex="1">
          <mxGeometry x="-270" y="790" width="60" height="100" as="geometry" />
        </mxCell>
        <mxCell id="_xqzCAe58smzrty0IkYW-3" value="Fazer Login no sistema" style="ellipse;whiteSpace=wrap;html=1;" parent="1" vertex="1">
          <mxGeometry x="180" y="585" width="140" height="70" as="geometry" />
        </mxCell>
        <mxCell id="_xqzCAe58smzrty0IkYW-5" value="" style="endArrow=none;html=1;rounded=0;entryX=0;entryY=0.5;entryDx=0;entryDy=0;exitX=1;exitY=0.3333333333333333;exitDx=0;exitDy=0;exitPerimeter=0;" parent="1" source="_xqzCAe58smzrty0IkYW-1" target="_xqzCAe58smzrty0IkYW-3" edge="1">
          <mxGeometry width="50" height="50" relative="1" as="geometry">
            <mxPoint x="-390" y="760" as="sourcePoint" />
            <mxPoint x="244" y="525" as="targetPoint" />
          </mxGeometry>
        </mxCell>
        <mxCell id="_xqzCAe58smzrty0IkYW-6" value="Solicitar Serviço" style="ellipse;whiteSpace=wrap;html=1;" parent="1" vertex="1">
          <mxGeometry x="80" y="690" width="140" height="70" as="geometry" />
        </mxCell>
        <mxCell id="_xqzCAe58smzrty0IkYW-7" value="" style="endArrow=none;html=1;rounded=0;entryX=0;entryY=0.5;entryDx=0;entryDy=0;" parent="1" source="_xqzCAe58smzrty0IkYW-1" target="_xqzCAe58smzrty0IkYW-6" edge="1">
          <mxGeometry width="50" height="50" relative="1" as="geometry">
            <mxPoint x="-450" y="800" as="sourcePoint" />
            <mxPoint x="274" y="610" as="targetPoint" />
          </mxGeometry>
        </mxCell>
        <mxCell id="_xqzCAe58smzrty0IkYW-8" value="Se cadastrar&amp;nbsp;" style="ellipse;whiteSpace=wrap;html=1;" parent="1" vertex="1">
          <mxGeometry x="180" y="500" width="140" height="70" as="geometry" />
        </mxCell>
        <mxCell id="_xqzCAe58smzrty0IkYW-9" value="" style="endArrow=none;html=1;rounded=0;entryX=0;entryY=0.5;entryDx=0;entryDy=0;exitX=0.75;exitY=0.1;exitDx=0;exitDy=0;exitPerimeter=0;" parent="1" source="_xqzCAe58smzrty0IkYW-1" target="_xqzCAe58smzrty0IkYW-8" edge="1">
          <mxGeometry width="50" height="50" relative="1" as="geometry">
            <mxPoint x="-230" y="720" as="sourcePoint" />
            <mxPoint x="190" y="415" as="targetPoint" />
          </mxGeometry>
        </mxCell>
        <mxCell id="_xqzCAe58smzrty0IkYW-10" value="Realizar Pagamento" style="ellipse;whiteSpace=wrap;html=1;" parent="1" vertex="1">
          <mxGeometry y="1160" width="140" height="70" as="geometry" />
        </mxCell>
        <mxCell id="_xqzCAe58smzrty0IkYW-11" value="" style="endArrow=none;html=1;rounded=0;entryX=0;entryY=0;entryDx=0;entryDy=0;exitX=1;exitY=1;exitDx=0;exitDy=0;exitPerimeter=0;" parent="1" source="_xqzCAe58smzrty0IkYW-1" target="_xqzCAe58smzrty0IkYW-10" edge="1">
          <mxGeometry width="50" height="50" relative="1" as="geometry">
            <mxPoint x="-140" y="800" as="sourcePoint" />
            <mxPoint x="-226" y="455" as="targetPoint" />
          </mxGeometry>
        </mxCell>
        <mxCell id="_xqzCAe58smzrty0IkYW-12" value="Sistema de Pagamento" style="shape=umlActor;verticalLabelPosition=bottom;verticalAlign=top;html=1;" parent="1" vertex="1">
          <mxGeometry x="-240" y="1130" width="50" height="80" as="geometry" />
        </mxCell>
        <mxCell id="_xqzCAe58smzrty0IkYW-14" value="" style="endArrow=none;html=1;rounded=0;entryX=0.014;entryY=0.614;entryDx=0;entryDy=0;exitX=0.5;exitY=0.5;exitDx=0;exitDy=0;exitPerimeter=0;entryPerimeter=0;" parent="1" source="_xqzCAe58smzrty0IkYW-12" target="_xqzCAe58smzrty0IkYW-10" edge="1">
          <mxGeometry width="50" height="50" relative="1" as="geometry">
            <mxPoint x="50" y="760" as="sourcePoint" />
            <mxPoint y="700" as="targetPoint" />
          </mxGeometry>
        </mxCell>
        <mxCell id="_xqzCAe58smzrty0IkYW-15" value="Prestador de Serviço" style="shape=umlActor;verticalLabelPosition=bottom;verticalAlign=top;html=1;" parent="1" vertex="1">
          <mxGeometry x="760" y="770" width="60" height="120" as="geometry" />
        </mxCell>
        <mxCell id="_xqzCAe58smzrty0IkYW-17" value="" style="endArrow=none;html=1;rounded=0;entryX=1;entryY=0.5;entryDx=0;entryDy=0;exitX=0.25;exitY=0.1;exitDx=0;exitDy=0;exitPerimeter=0;" parent="1" source="_xqzCAe58smzrty0IkYW-15" target="_xqzCAe58smzrty0IkYW-8" edge="1">
          <mxGeometry width="50" height="50" relative="1" as="geometry">
            <mxPoint x="720" y="750" as="sourcePoint" />
            <mxPoint x="490" y="475" as="targetPoint" />
          </mxGeometry>
        </mxCell>
        <mxCell id="_xqzCAe58smzrty0IkYW-18" value="" style="endArrow=none;html=1;rounded=0;entryX=1;entryY=0.5;entryDx=0;entryDy=0;exitX=0;exitY=0.3333333333333333;exitDx=0;exitDy=0;exitPerimeter=0;" parent="1" source="_xqzCAe58smzrty0IkYW-15" target="_xqzCAe58smzrty0IkYW-3" edge="1">
          <mxGeometry width="50" height="50" relative="1" as="geometry">
            <mxPoint x="670" y="750" as="sourcePoint" />
            <mxPoint x="420" y="510" as="targetPoint" />
          </mxGeometry>
        </mxCell>
        <mxCell id="_xqzCAe58smzrty0IkYW-19" value="Aceitar um serviço" style="ellipse;whiteSpace=wrap;html=1;" parent="1" vertex="1">
          <mxGeometry x="300" y="740" width="140" height="70" as="geometry" />
        </mxCell>
        <mxCell id="_xqzCAe58smzrty0IkYW-21" value="" style="endArrow=none;html=1;rounded=0;entryX=1;entryY=0;entryDx=0;entryDy=0;" parent="1" source="_xqzCAe58smzrty0IkYW-15" target="_xqzCAe58smzrty0IkYW-19" edge="1">
          <mxGeometry width="50" height="50" relative="1" as="geometry">
            <mxPoint x="660" y="980" as="sourcePoint" />
            <mxPoint x="600" y="462.5" as="targetPoint" />
          </mxGeometry>
        </mxCell>
        <mxCell id="_xqzCAe58smzrty0IkYW-28" value="" style="endArrow=none;html=1;rounded=0;entryX=0;entryY=0.5;entryDx=0;entryDy=0;" parent="1" source="_xqzCAe58smzrty0IkYW-1" target="_xqzCAe58smzrty0IkYW-19" edge="1">
          <mxGeometry width="50" height="50" relative="1" as="geometry">
            <mxPoint x="-250" y="940" as="sourcePoint" />
            <mxPoint x="270" y="812" as="targetPoint" />
          </mxGeometry>
        </mxCell>
        <mxCell id="_xqzCAe58smzrty0IkYW-30" value="APP BICO" style="shape=umlFrame;whiteSpace=wrap;html=1;pointerEvents=0;width=110;height=35;" parent="1" vertex="1">
          <mxGeometry x="-30" y="485" width="550" height="815" as="geometry" />
        </mxCell>
        <mxCell id="_xqzCAe58smzrty0IkYW-34" value="Realizar denúcias" style="ellipse;whiteSpace=wrap;html=1;" parent="1" vertex="1">
          <mxGeometry x="190" y="1020" width="140" height="70" as="geometry" />
        </mxCell>
        <mxCell id="_xqzCAe58smzrty0IkYW-35" value="" style="endArrow=none;html=1;rounded=0;entryX=0;entryY=0.5;entryDx=0;entryDy=0;" parent="1" source="_xqzCAe58smzrty0IkYW-1" target="_xqzCAe58smzrty0IkYW-34" edge="1">
          <mxGeometry width="50" height="50" relative="1" as="geometry">
            <mxPoint x="-200" y="860" as="sourcePoint" />
            <mxPoint x="280" y="975" as="targetPoint" />
          </mxGeometry>
        </mxCell>
        <mxCell id="_xqzCAe58smzrty0IkYW-36" value="" style="endArrow=none;html=1;rounded=0;entryX=1;entryY=0.5;entryDx=0;entryDy=0;" parent="1" source="_xqzCAe58smzrty0IkYW-15" target="_xqzCAe58smzrty0IkYW-34" edge="1">
          <mxGeometry width="50" height="50" relative="1" as="geometry">
            <mxPoint x="650" y="850" as="sourcePoint" />
            <mxPoint x="750" y="1035" as="targetPoint" />
          </mxGeometry>
        </mxCell>
        <mxCell id="_xqzCAe58smzrty0IkYW-37" value="Avaliar" style="ellipse;whiteSpace=wrap;html=1;" parent="1" vertex="1">
          <mxGeometry x="190" y="857.5" width="140" height="70" as="geometry" />
        </mxCell>
        <mxCell id="_xqzCAe58smzrty0IkYW-39" value="" style="endArrow=none;html=1;rounded=0;entryX=0;entryY=0.5;entryDx=0;entryDy=0;" parent="1" source="_xqzCAe58smzrty0IkYW-1" target="_xqzCAe58smzrty0IkYW-37" edge="1">
          <mxGeometry width="50" height="50" relative="1" as="geometry">
            <mxPoint x="-200" y="820" as="sourcePoint" />
            <mxPoint x="310" y="850" as="targetPoint" />
          </mxGeometry>
        </mxCell>
        <mxCell id="_xqzCAe58smzrty0IkYW-40" value="" style="endArrow=none;html=1;rounded=0;entryX=1;entryY=0.5;entryDx=0;entryDy=0;" parent="1" source="_xqzCAe58smzrty0IkYW-15" target="_xqzCAe58smzrty0IkYW-37" edge="1">
          <mxGeometry width="50" height="50" relative="1" as="geometry">
            <mxPoint x="670" y="830" as="sourcePoint" />
            <mxPoint x="420" y="815" as="targetPoint" />
          </mxGeometry>
        </mxCell>
        <mxCell id="CpKa8tIo5As4czP5kHQi-17" value="Visualizar Serviços" style="ellipse;whiteSpace=wrap;html=1;" vertex="1" parent="1">
          <mxGeometry x="320" y="927.5" width="140" height="70" as="geometry" />
        </mxCell>
        <mxCell id="CpKa8tIo5As4czP5kHQi-18" value="" style="endArrow=none;html=1;rounded=0;entryX=1;entryY=0.5;entryDx=0;entryDy=0;" edge="1" parent="1" source="_xqzCAe58smzrty0IkYW-15" target="CpKa8tIo5As4czP5kHQi-17">
          <mxGeometry width="50" height="50" relative="1" as="geometry">
            <mxPoint x="720" y="780" as="sourcePoint" />
            <mxPoint x="340" y="760" as="targetPoint" />
          </mxGeometry>
        </mxCell>
        <mxCell id="CpKa8tIo5As4czP5kHQi-23" value="Visualizar Histórico" style="ellipse;whiteSpace=wrap;html=1;" vertex="1" parent="1">
          <mxGeometry x="190" y="1120" width="140" height="70" as="geometry" />
        </mxCell>
        <mxCell id="CpKa8tIo5As4czP5kHQi-24" value="" style="endArrow=none;html=1;rounded=0;entryX=0;entryY=0.5;entryDx=0;entryDy=0;" edge="1" parent="1" source="_xqzCAe58smzrty0IkYW-1" target="CpKa8tIo5As4czP5kHQi-23">
          <mxGeometry width="50" height="50" relative="1" as="geometry">
            <mxPoint x="-200" y="940" as="sourcePoint" />
            <mxPoint x="205" y="835" as="targetPoint" />
          </mxGeometry>
        </mxCell>
        <mxCell id="CpKa8tIo5As4czP5kHQi-25" value="" style="endArrow=none;html=1;rounded=0;exitX=1;exitY=0.5;exitDx=0;exitDy=0;" edge="1" parent="1" source="CpKa8tIo5As4czP5kHQi-23" target="_xqzCAe58smzrty0IkYW-15">
          <mxGeometry width="50" height="50" relative="1" as="geometry">
            <mxPoint x="270" y="830" as="sourcePoint" />
            <mxPoint x="710" y="870" as="targetPoint" />
          </mxGeometry>
        </mxCell>
        <mxCell id="CpKa8tIo5As4czP5kHQi-37" value="" style="endArrow=classic;dashed=1;html=1;strokeWidth=2;rounded=0;entryX=0;entryY=1;entryDx=0;entryDy=0;endFill=1;" edge="1" parent="1" source="_xqzCAe58smzrty0IkYW-6" target="_xqzCAe58smzrty0IkYW-3">
          <mxGeometry width="50" height="50" relative="1" as="geometry">
            <mxPoint x="220" y="770" as="sourcePoint" />
            <mxPoint x="200" y="650" as="targetPoint" />
          </mxGeometry>
        </mxCell>
        <mxCell id="CpKa8tIo5As4czP5kHQi-38" value="" style="endArrow=classic;dashed=1;html=1;strokeWidth=2;rounded=0;entryX=1;entryY=1;entryDx=0;entryDy=0;exitX=0;exitY=0;exitDx=0;exitDy=0;endFill=1;" edge="1" parent="1" source="_xqzCAe58smzrty0IkYW-19" target="_xqzCAe58smzrty0IkYW-3">
          <mxGeometry width="50" height="50" relative="1" as="geometry">
            <mxPoint x="270" y="820" as="sourcePoint" />
            <mxPoint x="280" y="665" as="targetPoint" />
          </mxGeometry>
        </mxCell>
        <mxCell id="CpKa8tIo5As4czP5kHQi-39" value="&amp;lt;&amp;lt; include&amp;gt;&amp;gt;" style="text;strokeColor=none;fillColor=none;align=left;verticalAlign=middle;spacingLeft=4;spacingRight=4;overflow=hidden;points=[[0,0.5],[1,0.5]];portConstraint=eastwest;rotatable=0;whiteSpace=wrap;html=1;" vertex="1" parent="1">
          <mxGeometry x="160" y="660" width="80" height="30" as="geometry" />
        </mxCell>
        <mxCell id="CpKa8tIo5As4czP5kHQi-41" value="&amp;lt;&amp;lt; include&amp;gt;&amp;gt;" style="text;strokeColor=none;fillColor=none;align=left;verticalAlign=middle;spacingLeft=4;spacingRight=4;overflow=hidden;points=[[0,0.5],[1,0.5]];portConstraint=eastwest;rotatable=0;whiteSpace=wrap;html=1;" vertex="1" parent="1">
          <mxGeometry x="310" y="670" width="80" height="30" as="geometry" />
        </mxCell>
        <mxCell id="CpKa8tIo5As4czP5kHQi-44" value="uc -01" style="text;html=1;align=center;verticalAlign=middle;whiteSpace=wrap;rounded=0;" vertex="1" parent="1">
          <mxGeometry x="220" y="500" width="60" height="30" as="geometry" />
        </mxCell>
        <mxCell id="CpKa8tIo5As4czP5kHQi-45" value="uc -02&lt;span style=&quot;color: rgba(0, 0, 0, 0); font-family: monospace; font-size: 0px; text-align: start; text-wrap: nowrap;&quot;&gt;%3CmxGraphModel%3E%3Croot%3E%3CmxCell%20id%3D%220%22%2F%3E%3CmxCell%20id%3D%221%22%20parent%3D%220%22%2F%3E%3CmxCell%20id%3D%222%22%20value%3D%22uc%20-01%22%20style%3D%22text%3Bhtml%3D1%3Balign%3Dcenter%3BverticalAlign%3Dmiddle%3BwhiteSpace%3Dwrap%3Brounded%3D0%3B%22%20vertex%3D%221%22%20parent%3D%221%22%3E%3CmxGeometry%20x%3D%22220%22%20y%3D%22500%22%20width%3D%2260%22%20height%3D%2230%22%20as%3D%22geometry%22%2F%3E%3C%2FmxCell%3E%3C%2Froot%3E%3C%2FmxGraphModel%3E&lt;/span&gt;&lt;span style=&quot;color: rgba(0, 0, 0, 0); font-family: monospace; font-size: 0px; text-align: start; text-wrap: nowrap;&quot;&gt;%3CmxGraphModel%3E%3Croot%3E%3CmxCell%20id%3D%220%22%2F%3E%3CmxCell%20id%3D%221%22%20parent%3D%220%22%2F%3E%3CmxCell%20id%3D%222%22%20value%3D%22uc%20-01%22%20style%3D%22text%3Bhtml%3D1%3Balign%3Dcenter%3BverticalAlign%3Dmiddle%3BwhiteSpace%3Dwrap%3Brounded%3D0%3B%22%20vertex%3D%221%22%20parent%3D%221%22%3E%3CmxGeometry%20x%3D%22220%22%20y%3D%22500%22%20width%3D%2260%22%20height%3D%2230%22%20as%3D%22geometry%22%2F%3E%3C%2FmxCell%3E%3C%2Froot%3E%3C%2FmxGraphModel%3E&lt;/span&gt;" style="text;html=1;align=center;verticalAlign=middle;whiteSpace=wrap;rounded=0;" vertex="1" parent="1">
          <mxGeometry x="225" y="585" width="50" height="30" as="geometry" />
        </mxCell>
        <mxCell id="CpKa8tIo5As4czP5kHQi-46" value="uc -03&lt;span style=&quot;color: rgba(0, 0, 0, 0); font-family: monospace; font-size: 0px; text-align: start; text-wrap: nowrap;&quot;&gt;%3CmxGraphModel%3E%3Croot%3E%3CmxCell%20id%3D%220%22%2F%3E%3CmxCell%20id%3D%221%22%20parent%3D%220%22%2F%3E%3CmxCell%20id%3D%222%22%20value%3D%22uc%20-01%22%20style%3D%22text%3Bhtml%3D1%3Balign%3Dcenter%3BverticalAlign%3Dmiddle%3BwhiteSpace%3Dwrap%3Brounded%3D0%3B%22%20vertex%3D%221%22%20parent%3D%221%22%3E%3CmxGeometry%20x%3D%22220%22%20y%3D%22500%22%20width%3D%2260%22%20height%3D%2230%22%20as%3D%22geometry%22%2F%3E%3C%2FmxCell%3E%3C%2Froot%3E%3C%2FmxGraphModel%3E&lt;/span&gt;&lt;span style=&quot;color: rgba(0, 0, 0, 0); font-family: monospace; font-size: 0px; text-align: start; text-wrap: nowrap;&quot;&gt;%3CmxGraphModel%3E%3Croot%3E%3CmxCell%20id%3D%220%22%2F%3E%3CmxCell%20id%3D%221%22%20parent%3D%220%22%2F%3E%3CmxCell%20id%3D%222%22%20value%3D%22uc%20-01%22%20style%3D%22text%3Bhtml%3D1%3Balign%3Dcenter%3BverticalAlign%3Dmiddle%3BwhiteSpace%3Dwrap%3Brounded%3D0%3B%22%20vertex%3D%221%22%20parent%3D%221%22%3E%3CmxGeometry%20x%3D%22220%22%20y%3D%22500%22%20width%3D%2260%22%20height%3D%2230%22%20as%3D%22geometry%22%2F%3E%3C%2FmxCell%3E%3C%2Froot%3E%3C%2FmxGraphModel%3E&lt;/span&gt;" style="text;html=1;align=center;verticalAlign=middle;whiteSpace=wrap;rounded=0;" vertex="1" parent="1">
          <mxGeometry x="125" y="690" width="50" height="30" as="geometry" />
        </mxCell>
        <mxCell id="CpKa8tIo5As4czP5kHQi-47" value="uc -04&lt;span style=&quot;color: rgba(0, 0, 0, 0); font-family: monospace; font-size: 0px; text-align: start; text-wrap: nowrap;&quot;&gt;%3CmxGraphModel%3E%3Croot%3E%3CmxCell%20id%3D%220%22%2F%3E%3CmxCell%20id%3D%221%22%20parent%3D%220%22%2F%3E%3CmxCell%20id%3D%222%22%20value%3D%22uc%20-01%22%20style%3D%22text%3Bhtml%3D1%3Balign%3Dcenter%3BverticalAlign%3Dmiddle%3BwhiteSpace%3Dwrap%3Brounded%3D0%3B%22%20vertex%3D%221%22%20parent%3D%221%22%3E%3CmxGeometry%20x%3D%22220%22%20y%3D%22500%22%20width%3D%2260%22%20height%3D%2230%22%20as%3D%22geometry%22%2F%3E%3C%2FmxCell%3E%3C%2Froot%3E%3C%2FmxGraphModel%3E&lt;/span&gt;&lt;span style=&quot;color: rgba(0, 0, 0, 0); font-family: monospace; font-size: 0px; text-align: start; text-wrap: nowrap;&quot;&gt;%3CmxGraphModel%3E%3Croot%3E%3CmxCell%20id%3D%220%22%2F%3E%3CmxCell%20id%3D%221%22%20parent%3D%220%22%2F%3E%3CmxCell%20id%3D%222%22%20value%3D%22uc%20-01%22%20style%3D%22text%3Bhtml%3D1%3Balign%3Dcenter%3BverticalAlign%3Dmiddle%3BwhiteSpace%3Dwrap%3Brounded%3D0%3B%22%20vertex%3D%221%22%20parent%3D%221%22%3E%3CmxGeometry%20x%3D%22220%22%20y%3D%22500%22%20width%3D%2260%22%20height%3D%2230%22%20as%3D%22geometry%22%2F%3E%3C%2FmxCell%3E%3C%2Froot%3E%3C%2FmxGraphModel%3&lt;/span&gt;" style="text;html=1;align=center;verticalAlign=middle;whiteSpace=wrap;rounded=0;" vertex="1" parent="1">
          <mxGeometry x="345" y="740" width="50" height="30" as="geometry" />
        </mxCell>
        <mxCell id="CpKa8tIo5As4czP5kHQi-48" value="uc -05&lt;span style=&quot;color: rgba(0, 0, 0, 0); font-family: monospace; font-size: 0px; text-align: start; text-wrap: nowrap;&quot;&gt;%3CmxGraphModel%3E%3Croot%3E%3CmxCell%20id%3D%220%22%2F%3E%3CmxCell%20id%3D%221%22%20parent%3D%220%22%2F%3E%3CmxCell%20id%3D%222%22%20value%3D%22uc%20-01%22%20style%3D%22text%3Bhtml%3D1%3Balign%3Dcenter%3BverticalAlign%3Dmiddle%3BwhiteSpace%3Dwrap%3Brounded%3D0%3B%22%20vertex%3D%221%22%20parent%3D%221%22%3E%3CmxGeometry%20x%3D%22220%22%20y%3D%22500%22%20width%3D%2260%22%20height%3D%2230%22%20as%3D%22geometry%22%2F%3E%3C%2FmxCell%3E%3C%2Froot%3E%3C%2FmxGraphModel%3E&lt;/span&gt;&lt;span style=&quot;color: rgba(0, 0, 0, 0); font-family: monospace; font-size: 0px; text-align: start; text-wrap: nowrap;&quot;&gt;%3CmxGraphModel%3E%3Croot%3E%3CmxCell%20id%3D%220%22%2F%3E%3CmxCell%20id%3D%221%22%20parent%3D%220%22%2F%3E%3CmxCell%20id%3D%222%22%20value%3D%22uc%20-01%22%20style%3D%22text%3Bhtml%3D1%3Balign%3Dcenter%3BverticalAlign%3Dmiddle%3BwhiteSpace%3Dwrap%3Brounded%3D0%3B%22%20vertex%3D%221%22%20parent%3D%221%22%3E%3CmxGeometry%20x%3D%22220%22%20y%3D%22500%22%20width%3D%2260%22%20height%3D%2230%22%20as%3D%22geometry%22%2F%3E%3C%2FmxCell%3E%3C%2Froot%3E%3C%2FmxGraphModel%3E&lt;/span&gt;" style="text;html=1;align=center;verticalAlign=middle;whiteSpace=wrap;rounded=0;" vertex="1" parent="1">
          <mxGeometry x="235" y="857.5" width="50" height="30" as="geometry" />
        </mxCell>
        <mxCell id="CpKa8tIo5As4czP5kHQi-49" value="uc -06&lt;span style=&quot;color: rgba(0, 0, 0, 0); font-family: monospace; font-size: 0px; text-align: start; text-wrap: nowrap;&quot;&gt;%3CmxGraphModel%3E%3Croot%3E%3CmxCell%20id%3D%220%22%2F%3E%3CmxCell%20id%3D%221%22%20parent%3D%220%22%2F%3E%3CmxCell%20id%3D%222%22%20value%3D%22uc%20-01%22%20style%3D%22text%3Bhtml%3D1%3Balign%3Dcenter%3BverticalAlign%3Dmiddle%3BwhiteSpace%3Dwrap%3Brounded%3D0%3B%22%20vertex%3D%221%22%20parent%3D%221%22%3E%3CmxGeometry%20x%3D%22220%22%20y%3D%22500%22%20width%3D%2260%22%20height%3D%2230%22%20as%3D%22geometry%22%2F%3E%3C%2FmxCell%3E%3C%2Froot%3E%3C%2FmxGraphModel%3E&lt;/span&gt;&lt;span style=&quot;color: rgba(0, 0, 0, 0); font-family: monospace; font-size: 0px; text-align: start; text-wrap: nowrap;&quot;&gt;%3CmxGraphModel%3E%3Croot%3E%3CmxCell%20id%3D%220%22%2F%3E%3CmxCell%20id%3D%221%22%20parent%3D%220%22%2F%3E%3CmxCell%20id%3D%222%22%20value%3D%22uc%20-01%22%20style%3D%22text%3Bhtml%3D1%3Balign%3Dcenter%3BverticalAlign%3Dmiddle%3BwhiteSpace%3Dwrap%3Brounded%3D0%3B%22%20vertex%3D%221%22%20parent%3D%221%22%3E%3CmxGeometry%20x%3D%22220%22%20y%3D%22500%22%20width%3D%2260%22%20height%3D%2230%22%20as%3D%22geometry%22%2F%3E%3C%2FmxCell%3E%3C%2Froot%3E%3C%2FmxGraphModel%3E&lt;/span&gt;" style="text;html=1;align=center;verticalAlign=middle;whiteSpace=wrap;rounded=0;" vertex="1" parent="1">
          <mxGeometry x="365" y="927.5" width="50" height="30" as="geometry" />
        </mxCell>
        <mxCell id="CpKa8tIo5As4czP5kHQi-50" value="uc -07&lt;span style=&quot;color: rgba(0, 0, 0, 0); font-family: monospace; font-size: 0px; text-align: start; text-wrap: nowrap;&quot;&gt;%3CmxGraphModel%3E%3Croot%3E%3CmxCell%20id%3D%220%22%2F%3E%3CmxCell%20id%3D%221%22%20parent%3D%220%22%2F%3E%3CmxCell%20id%3D%222%22%20value%3D%22uc%20-01%22%20style%3D%22text%3Bhtml%3D1%3Balign%3Dcenter%3BverticalAlign%3Dmiddle%3BwhiteSpace%3Dwrap%3Brounded%3D0%3B%22%20vertex%3D%221%22%20parent%3D%221%22%3E%3CmxGeometry%20x%3D%22220%22%20y%3D%22500%22%20width%3D%2260%22%20height%3D%2230%22%20as%3D%22geometry%22%2F%3E%3C%2FmxCell%3E%3C%2Froot%3E%3C%2FmxGraphModel%3E&lt;/span&gt;&lt;span style=&quot;color: rgba(0, 0, 0, 0); font-family: monospace; font-size: 0px; text-align: start; text-wrap: nowrap;&quot;&gt;%3CmxGraphModel%3E%3Croot%3E%3CmxCell%20id%3D%220%22%2F%3E%3CmxCell%20id%3D%221%22%20parent%3D%220%22%2F%3E%3CmxCell%20id%3D%222%22%20value%3D%22uc%20-01%22%20style%3D%22text%3Bhtml%3D1%3Balign%3Dcenter%3BverticalAlign%3Dmiddle%3BwhiteSpace%3Dwrap%3Brounded%3D0%3B%22%20vertex%3D%221%22%20parent%3D%221%22%3E%3CmxGeometry%20x%3D%22220%22%20y%3D%22500%22%20width%3D%2260%22%20height%3D%2230%22%20as%3D%22geometry%22%2F%3E%3C%2FmxCell%3E%3C%2Froot%3E%3C%2FmxGraphModel%3E&lt;/span&gt;" style="text;html=1;align=center;verticalAlign=middle;whiteSpace=wrap;rounded=0;" vertex="1" parent="1">
          <mxGeometry x="235" y="1020" width="50" height="30" as="geometry" />
        </mxCell>
        <mxCell id="CpKa8tIo5As4czP5kHQi-51" value="uc -08&lt;span style=&quot;color: rgba(0, 0, 0, 0); font-family: monospace; font-size: 0px; text-align: start; text-wrap: nowrap;&quot;&gt;%3CmxGraphModel%3E%3Croot%3E%3CmxCell%20id%3D%220%22%2F%3E%3CmxCell%20id%3D%221%22%20parent%3D%220%22%2F%3E%3CmxCell%20id%3D%222%22%20value%3D%22uc%20-01%22%20style%3D%22text%3Bhtml%3D1%3Balign%3Dcenter%3BverticalAlign%3Dmiddle%3BwhiteSpace%3Dwrap%3Brounded%3D0%3B%22%20vertex%3D%221%22%20parent%3D%221%22%3E%3CmxGeometry%20x%3D%22220%22%20y%3D%22500%22%20width%3D%2260%22%20height%3D%2230%22%20as%3D%22geometry%22%2F%3E%3C%2FmxCell%3E%3C%2Froot%3E%3C%2FmxGraphModel%3E&lt;/span&gt;&lt;span style=&quot;color: rgba(0, 0, 0, 0); font-family: monospace; font-size: 0px; text-align: start; text-wrap: nowrap;&quot;&gt;%3CmxGraphModel%3E%3Croot%3E%3CmxCell%20id%3D%220%22%2F%3E%3CmxCell%20id%3D%221%22%20parent%3D%220%22%2F%3E%3CmxCell%20id%3D%222%22%20value%3D%22uc%20-01%22%20style%3D%22text%3Bhtml%3D1%3Balign%3Dcenter%3BverticalAlign%3Dmiddle%3BwhiteSpace%3Dwrap%3Brounded%3D0%3B%22%20vertex%3D%221%22%20parent%3D%221%22%3E%3CmxGeometry%20x%3D%22220%22%20y%3D%22500%22%20width%3D%2260%22%20height%3D%2230%22%20as%3D%22geometry%22%2F%3E%3C%2FmxCell%3E%3C%2Froot%3E%3C%2FmxGraphModel%3E&lt;/span&gt;" style="text;html=1;align=center;verticalAlign=middle;whiteSpace=wrap;rounded=0;" vertex="1" parent="1">
          <mxGeometry x="235" y="1120" width="50" height="30" as="geometry" />
        </mxCell>
        <mxCell id="CpKa8tIo5As4czP5kHQi-52" value="uc -09&lt;span style=&quot;color: rgba(0, 0, 0, 0); font-family: monospace; font-size: 0px; text-align: start; text-wrap: nowrap;&quot;&gt;%3CmxGraphModel%3E%3Croot%3E%3CmxCell%20id%3D%220%22%2F%3E%3CmxCell%20id%3D%221%22%20parent%3D%220%22%2F%3E%3CmxCell%20id%3D%222%22%20value%3D%22uc%20-01%22%20style%3D%22text%3Bhtml%3D1%3Balign%3Dcenter%3BverticalAlign%3Dmiddle%3BwhiteSpace%3Dwrap%3Brounded%3D0%3B%22%20vertex%3D%221%22%20parent%3D%221%22%3E%3CmxGeometry%20x%3D%22220%22%20y%3D%22500%22%20width%3D%2260%22%20height%3D%2230%22%20as%3D%22geometry%22%2F%3E%3C%2FmxCell%3E%3C%2Froot%3E%3C%2FmxGraphModel%3E&lt;/span&gt;&lt;span style=&quot;color: rgba(0, 0, 0, 0); font-family: monospace; font-size: 0px; text-align: start; text-wrap: nowrap;&quot;&gt;%3CmxGraphModel%3E%3Croot%3E%3CmxCell%20id%3D%220%22%2F%3E%3CmxCell%20id%3D%221%22%20parent%3D%220%22%2F%3E%3CmxCell%20id%3D%222%22%20value%3D%22uc%20-01%22%20style%3D%22text%3Bhtml%3D1%3Balign%3Dcenter%3BverticalAlign%3Dmiddle%3BwhiteSpace%3Dwrap%3Brounded%3D0%3B%22%20vertex%3D%221%22%20parent%3D%221%22%3E%3CmxGeometry%20x%3D%22220%22%20y%3D%22500%22%20width%3D%2260%22%20height%3D%2230%22%20as%3D%22geometry%22%2F%3E%3C%2FmxCell%3E%3C%2Froot%3E%3C%2FmxGraphModel%3E&lt;/span&gt;" style="text;html=1;align=center;verticalAlign=middle;whiteSpace=wrap;rounded=0;" vertex="1" parent="1">
          <mxGeometry x="45" y="1160" width="50" height="30" as="geometry" />
        </mxCell>
      </root>
    </mxGraphModel>
  </diagram>
</mxfile>
